<?xml version="1.0" encoding="utf-8"?><svg xmlns="http://www.w3.org/2000/svg" xmlns:xlink="http://www.w3.org/1999/xlink"><symbol viewBox="0 0 24 24" id="arrow-left" xmlns="http://www.w3.org/2000/svg"><path d="M3 12h18m-6-6l6 6-6 6"/></symbol><symbol viewBox="0 0 24 24" id="arrow-right" xmlns="http://www.w3.org/2000/svg"><path d="M21 12H3m6-6l-6 6 6 6"/></symbol><symbol viewBox="0 0 28 27" id="close" xmlns="http://www.w3.org/2000/svg"><path d="M27.125 1.11a2.152 2.152 0 00-2.938 0L14 10.773 3.812 1.09a2.152 2.152 0 00-2.937 0 1.904 1.904 0 000 2.792l10.188 9.683L.874 23.247a1.904 1.904 0 000 2.792 2.152 2.152 0 002.938 0L14 16.356l10.188 9.683a2.152 2.152 0 002.937 0 1.904 1.904 0 000-2.792l-10.188-9.682 10.188-9.683a1.915 1.915 0 000-2.772z"/></symbol><symbol viewBox="0 0 50 50" id="instagram" xmlns="http://www.w3.org/2000/svg"><path d="M29.785 25a4.785 4.785 0 11-9.57 0 4.785 4.785 0 019.57 0z"/><path d="M36.19 16.534a4.448 4.448 0 00-1.073-1.65 4.445 4.445 0 00-1.651-1.075c-.506-.196-1.266-.43-2.665-.494-1.514-.069-1.968-.084-5.801-.084-3.834 0-4.288.015-5.801.084-1.4.064-2.16.298-2.666.494a4.442 4.442 0 00-1.65 1.074 4.45 4.45 0 00-1.075 1.65c-.196.507-.43 1.267-.494 2.666-.069 1.514-.084 1.968-.084 5.801 0 3.834.015 4.288.084 5.802.064 1.4.298 2.16.494 2.665a4.45 4.45 0 001.074 1.65 4.444 4.444 0 001.65 1.074c.507.197 1.267.431 2.667.495 1.513.069 1.967.083 5.8.083 3.834 0 4.288-.014 5.801-.083 1.4-.064 2.16-.298 2.666-.495a4.754 4.754 0 002.724-2.724c.197-.506.43-1.266.495-2.665.069-1.514.083-1.968.083-5.802 0-3.833-.014-4.287-.083-5.8-.064-1.4-.298-2.16-.495-2.666zM25 32.372a7.371 7.371 0 11-.001-14.743 7.371 7.371 0 010 14.743zm7.663-13.312a1.723 1.723 0 110-3.446 1.723 1.723 0 010 3.446z"/><path d="M25 0C11.195 0 0 11.195 0 25s11.195 25 25 25 25-11.195 25-25S38.805 0 25 0zm14.269 30.919c-.07 1.528-.313 2.571-.667 3.484a7.34 7.34 0 01-4.199 4.199c-.913.355-1.956.597-3.484.667-1.531.07-2.02.087-5.919.087-3.899 0-4.387-.017-5.919-.087-1.527-.07-2.571-.313-3.484-.667a7.033 7.033 0 01-2.543-1.656 7.035 7.035 0 01-1.655-2.543c-.355-.913-.598-1.956-.667-3.484-.071-1.531-.087-2.02-.087-5.919 0-3.899.016-4.388.086-5.919.07-1.528.312-2.571.667-3.484a7.033 7.033 0 011.656-2.543 7.032 7.032 0 012.543-1.656c.913-.354 1.956-.597 3.484-.667 1.531-.07 2.02-.086 5.919-.086 3.899 0 4.388.016 5.919.087 1.528.069 2.571.312 3.484.666.958.36 1.826.926 2.543 1.656a7.033 7.033 0 011.656 2.543c.355.913.597 1.956.667 3.484.07 1.531.087 2.02.087 5.919 0 3.899-.017 4.388-.087 5.919z"/></symbol><symbol viewBox="0 0 24 24" id="location" xmlns="http://www.w3.org/2000/svg"><path clip-rule="evenodd" d="M12 21s6-6.3 6-12A6 6 0 006 9c0 5.7 6 12 6 12z"/><path clip-rule="evenodd" d="M12 10a1 1 0 100-2 1 1 0 000 2z"/></symbol><symbol viewBox="0 0 44 38" id="logo" xmlns="http://www.w3.org/2000/svg"><path fill-rule="evenodd" clip-rule="evenodd" d="M30.652 37.618v-1.059s-3.307.067-4.233-.66c-.926-.728-1.521-1.985-1.521-3.903v-6.018s8.796-.927 11.574-3.704c2.778-2.778 3.571-7.275 3.571-10.053 0-1.39.015-5.122.015-7.074 0-1.192.21-3.314 1.828-3.314.804 0 2.06.004 2.06.004V.448s-1.72-.066-2.778-.066c-1.059 0-3.605.166-4.895 1.455-1.29 1.29-2.116 4.828-2.116 10.913s-.529 7.738-2.05 9.26c-2.282 2.281-7.21 2.446-7.21 2.446V6.996c0-2.116-.065-3.24.927-4.233.992-.992 4.299-.86 4.299-.86V.383H13.876v1.52s3.307-.132 4.3.86c.992.992.925 2.117.925 4.233v17.46s-4.927-.165-7.209-2.447c-1.52-1.521-2.05-3.174-2.05-9.26 0-6.084-.827-9.622-2.116-10.912C6.436.547 3.89.382 2.83.382 1.773.382.054.448.054.448v1.39s1.255-.005 2.059-.005c1.618 0 1.828 2.122 1.828 3.314 0 1.952.015 5.685.015 7.074 0 2.778.793 7.275 3.571 10.053 2.778 2.777 11.574 3.703 11.574 3.703v6.019c0 1.918-.595 3.175-1.52 3.902-.927.728-4.234.661-4.234.661v1.059"/></symbol><symbol viewBox="0 0 29 29" id="logo2" xmlns="http://www.w3.org/2000/svg"><circle cx="14.5" cy="14.5" r="14.5"/><defs><linearGradient id="gpaint0_linear" x1="29" y1="17.59" x2="0" y2="17.613" gradientUnits="userSpaceOnUse"><stop stop-color="#4DC8C0"/><stop offset="1" stop-color="#56D0C9"/></linearGradient></defs></symbol><symbol viewBox="0 0 24 24" id="phone" xmlns="http://www.w3.org/2000/svg"><path d="M12.74 18.404l2.565-2.565a1 1 0 011.28-.113l3.55 2.476a1 1 0 01.135 1.528l-.386.386c-.71.71-1.73 1.018-2.686.71-2.065-.665-5.822-2.208-8.937-5.323-3.115-3.115-4.658-6.872-5.323-8.937-.308-.956 0-1.975.71-2.685l.387-.387a1 1 0 011.527.135L8.038 7.18a1 1 0 01-.113 1.28l-2.564 2.564"/></symbol><symbol viewBox="0 0 50 50" id="vk" xmlns="http://www.w3.org/2000/svg"><path d="M25 0C11.193 0 0 11.193 0 25s11.193 25 25 25 25-11.193 25-25S38.807 0 25 0zm12.681 27.704c1.166 1.138 2.398 2.209 3.444 3.465.464.555.9 1.13 1.233 1.776.475.921.046 1.931-.778 1.986l-5.122-.001c-1.323.11-2.376-.424-3.263-1.328-.709-.721-1.366-1.491-2.048-2.236-.279-.306-.573-.594-.922-.82-.699-.455-1.305-.316-1.705.414-.408.742-.501 1.564-.54 2.39-.056 1.208-.42 1.524-1.632 1.58-2.589.122-5.046-.271-7.33-1.577-2.013-1.151-3.573-2.776-4.931-4.616-2.646-3.587-4.672-7.523-6.492-11.573-.41-.912-.11-1.4.896-1.419 1.672-.032 3.343-.028 5.015-.001.68.01 1.13.4 1.392 1.042.903 2.222 2.01 4.337 3.398 6.298.37.522.748 1.043 1.285 1.412.593.407 1.046.272 1.325-.39.18-.421.257-.871.296-1.322.132-1.546.148-3.09-.082-4.63-.143-.963-.685-1.585-1.645-1.767-.489-.092-.417-.273-.18-.553.413-.483.8-.781 1.573-.781l5.787-.001c.912.179 1.116.588 1.24 1.507l.005 6.43c-.01.356.179 1.41.817 1.642.512.169.85-.241 1.155-.565 1.388-1.473 2.377-3.21 3.262-5.01.39-.793.728-1.614 1.055-2.437.244-.608.622-.907 1.309-.897l5.572.007c.164 0 .331.001.494.03.939.16 1.196.564.906 1.48-.458 1.44-1.346 2.639-2.215 3.84-.93 1.288-1.924 2.53-2.845 3.822-.847 1.182-.78 1.777.271 2.803z"/></symbol><symbol viewBox="0 0 50 50" id="youtube" xmlns="http://www.w3.org/2000/svg"><path d="M21.886 29.684L30.018 25l-8.132-4.684v9.368z"/><path d="M25 0C11.195 0 0 11.195 0 25s11.195 25 25 25 25-11.195 25-25S38.805 0 25 0zm15.621 25.026s0 5.07-.643 7.515a3.915 3.915 0 01-2.754 2.753c-2.445.644-12.224.644-12.224.644s-9.754 0-12.224-.67a3.915 3.915 0 01-2.754-2.753C9.378 30.095 9.378 25 9.378 25s0-5.07.644-7.515a3.994 3.994 0 012.754-2.779C15.22 14.063 25 14.063 25 14.063s9.78 0 12.224.669a3.915 3.915 0 012.754 2.753c.67 2.445.643 7.54.643 7.54z"/></symbol></svg>